<?xml version="1.0" encoding="utf-8"?>
<!-- Generator: Adobe Illustrator 15.0.0, SVG Export Plug-In . SVG Version: 6.00 Build 0)  -->
<!DOCTYPE svg PUBLIC "-//W3C//DTD SVG 1.1//EN" "http://www.w3.org/Graphics/SVG/1.1/DTD/svg11.dtd">
<svg version="1.1" id="Layer_1" xmlns="http://www.w3.org/2000/svg" xmlns:xlink="http://www.w3.org/1999/xlink" x="0px" y="0px"
	 width="100px" height="100px" viewBox="0 0 100 100" enable-background="new 0 0 100 100" xml:space="preserve">
<path fill="#F24044" d="M50.5,1.662c-16.603,0-30.109,13.507-30.109,30.108c0,6.883,5.89,17.807,6.173,18.323l7.005,11.246
	c0.199,0.394,2.082,4.203,2.082,7.613v5.155l0.047,0.153c0.033,0.107,0.769,2.415,2.629,3.525c-0.321,0.537-0.518,1.157-0.518,1.828
	v0.104c0,0.982,0.398,1.874,1.041,2.523c-0.642,0.647-1.041,1.538-1.041,2.521v0.105c0,0.982,0.398,1.874,1.041,2.523
	c-0.642,0.647-1.041,1.539-1.041,2.521v0.104c0,1.979,1.611,3.592,3.591,3.592h3.049c-0.199,0.444-0.314,0.937-0.314,1.455v0.683
	c0,1.979,1.611,3.59,3.591,3.59h5.549c1.979,0,3.591-1.61,3.591-3.59v-0.683c0-0.52-0.115-1.011-0.314-1.455H59.6
	c1.98,0,3.59-1.611,3.59-3.592v-0.104c0-0.981-0.396-1.873-1.039-2.521c0.643-0.649,1.039-1.541,1.039-2.523v-0.105
	c0-0.982-0.397-1.873-1.039-2.521c0.642-0.649,1.039-1.541,1.039-2.523v-0.104c0-0.671-0.194-1.292-0.518-1.83
	c1.861-1.109,2.596-3.417,2.628-3.524l0.048-0.152v-5.155c0-3.397,1.885-7.222,2.084-7.614l7.035-11.299
	c0.252-0.461,6.143-11.385,6.143-18.269C80.609,15.169,67.104,1.662,50.5,1.662z M61.055,79.615v0.104
	c0,0.803-0.652,1.456-1.455,1.456H41.4c-0.803,0-1.457-0.653-1.457-1.456v-0.104c0-0.805,0.653-1.456,1.457-1.456h18.2
	C60.402,78.159,61.055,78.812,61.055,79.615z M61.055,84.764v0.105c0,0.803-0.652,1.455-1.455,1.455H41.4
	c-0.803,0-1.457-0.652-1.457-1.455v-0.105c0-0.801,0.653-1.455,1.457-1.455h18.2C60.402,83.309,61.055,83.963,61.055,84.764z
	 M54.73,95.066v0.682c0,0.803-0.652,1.455-1.457,1.455h-5.548c-0.803,0-1.457-0.652-1.457-1.455v-0.682
	c0-0.803,0.653-1.457,1.457-1.457h5.548C54.078,93.609,54.73,94.264,54.73,95.066z M61.055,90.02c0,0.804-0.652,1.457-1.455,1.457
	h-6.324h-5.549H41.4c-0.803,0-1.457-0.653-1.457-1.457v-0.104c0-0.802,0.653-1.455,1.457-1.455h18.2
	c0.803,0,1.455,0.653,1.455,1.455V90.02z M72.624,48.965l-7.028,11.283l-0.041,0.07c-0.096,0.184-2.342,4.535-2.342,8.634v4.817
	c-0.217,0.584-0.818,1.775-1.752,2.254H59.6H41.4h-1.863c-0.934-0.479-1.537-1.672-1.751-2.254v-4.817
	c0-4.099-2.245-8.45-2.34-8.634l-7.038-11.299c-0.06-0.108-5.883-10.903-5.883-17.25c0-15.424,12.55-27.973,27.975-27.973
	c15.426,0,27.975,12.548,27.975,27.973C78.475,38.11,72.65,48.912,72.624,48.965z"/>
</svg>
